<?xml version="1.0" encoding="UTF-8"?>
<svg version="1.1" xmlns="http://www.w3.org/2000/svg" width="220" height="91">
<path d="M0 0 C72.6 0 145.2 0 220 0 C220 30.03 220 60.06 220 91 C147.4 91 74.8 91 0 91 C0 60.97 0 30.94 0 0 Z " fill="#FDFBFC" transform="translate(0,0)"/>
<path d="M0 0 C4.01520077 2.62532358 6.57075601 5.72486106 9.51171875 9.4609375 C11.36090183 11.37321606 13.37646067 12.64581124 15.625 14.0625 C21.61597178 17.9401839 21.61597178 17.9401839 23 22 C23.65189002 26.97275082 23.86136792 31.33803952 21 35.625 C20.34 36.40875 19.68 37.1925 19 38 C18.34 37.34 17.68 36.68 17 36 C16.51273438 36.38671875 16.02546875 36.7734375 15.5234375 37.171875 C7.12497068 43.34093063 -3.48807922 47.19002877 -14 46 C-14.99 45.34 -15.98 44.68 -17 44 C-17.1875 41.375 -17.1875 41.375 -17 39 C-16.566875 39.9590625 -16.566875 39.9590625 -16.125 40.9375 C-15.17176549 43.15206079 -15.17176549 43.15206079 -13 44 C-4.01757957 43.70549441 5.51129842 41.0118788 12.75 35.5 C15.10520945 32.88310062 15.8011936 31.47911196 16 28 C10.28341664 27.54267333 7.51350747 28.47726246 3 32 C3 31.34 3 30.68 3 30 C2.34 30 1.68 30 1 30 C0.67 32.64 0.34 35.28 0 38 C-1.485 37.505 -1.485 37.505 -3 37 C-3.33 37.66 -3.66 38.32 -4 39 C-7.875 35.25 -7.875 35.25 -9 33 C-10.65 33.99 -12.3 34.98 -14 36 C-14 31.79667349 -11.88331504 30.88331504 -9 28 C-9 27.01 -9 26.02 -9 25 C-10.11375 24.4225 -11.2275 23.845 -12.375 23.25 C-14.60774917 21.96187548 -15.90781544 21.11907172 -17.5 19.0625 C-18.83990661 13.53538524 -15.56646353 7.79134738 -13 3 C-9.70927635 -1.02199557 -4.83324171 -0.89254986 0 0 Z " fill="#E7DDE7" transform="translate(188,4)"/>
<path d="M0 0 C0.928125 0.825 1.85625 1.65 2.8125 2.5 C5.93094925 5.19378238 9.18871082 7.57308217 12.5625 9.9375 C17.86871372 13.7620612 22.95058846 17.47697555 24.875 23.9375 C24.91625 24.618125 24.9575 25.29875 25 26 C26.98 26.33 28.96 26.66 31 27 C31 27.99 31 28.98 31 30 C31.99 29.67 32.98 29.34 34 29 C34.495 27.515 34.495 27.515 35 26 C36.32 26 37.64 26 39 26 C39 30.95 39 35.9 39 41 C38.34 41 37.68 41 37 41 C37 40.34 37 39.68 37 39 C36.34 39 35.68 39 35 39 C33.4921875 37.46875 33.4921875 37.46875 31.875 35.5 C31.33617187 34.8503125 30.79734375 34.200625 30.2421875 33.53125 C29.83226562 33.0259375 29.42234375 32.520625 29 32 C28.67 34.97 28.34 37.94 28 41 C27.34 41 26.68 41 26 41 C25.67 37.7 25.34 34.4 25 31 C24.67 31 24.34 31 24 31 C23.938125 30.21625 23.87625 29.4325 23.8125 28.625 C23.28303675 25.82688011 23.28303675 25.82688011 20.84375 24.84375 C17.64642311 23.89509257 15.01584207 23.80184962 11.6875 23.875 C10.61886719 23.89304687 9.55023438 23.91109375 8.44921875 23.9296875 C7.23685547 23.96449219 7.23685547 23.96449219 6 24 C6.66 24.66 7.32 25.32 8 26 C8.34375 27.91015625 8.34375 27.91015625 8.5 30.0625 C8.7475 32.0115625 8.7475 32.0115625 9 34 C9.99 34.495 9.99 34.495 11 35 C11.33 33.68 11.66 32.36 12 31 C12.66 31 13.32 31 14 31 C14.33 29.68 14.66 28.36 15 27 C15.66 27 16.32 27 17 27 C17.83764268 28.95649397 18.66999059 30.91525556 19.5 32.875 C19.9640625 33.96554688 20.428125 35.05609375 20.90625 36.1796875 C22 39 22 39 22 41 C21.01 40.67 20.02 40.34 19 40 C19 39.01 19 38.02 19 37 C16.03 37.495 16.03 37.495 13 38 C12.67 38.99 12.34 39.98 12 41 C11.01 41 10.02 41 9 41 C9 39.68 9 38.36 9 37 C8.01 36.505 8.01 36.505 7 36 C7 37.65 7 39.3 7 41 C6.01 41 5.02 41 4 41 C3.505 37.535 3.505 37.535 3 34 C2.01 35.32 1.02 36.64 0 38 C-3.875 36.25 -3.875 36.25 -5 34 C-5.33 36.31 -5.66 38.62 -6 41 C-6.66 41 -7.32 41 -8 41 C-8 36.38 -8 31.76 -8 27 C-6.68 28.32 -5.36 29.64 -4 31 C-1.35815459 31.79681318 -1.35815459 31.79681318 1 32 C1.99 28.535 1.99 28.535 3 25 C2.30962646 24.98541748 1.61925293 24.97083496 0.90795898 24.95581055 C-2.2493966 24.88089383 -5.40574501 24.78437783 -8.5625 24.6875 C-9.64853516 24.66494141 -10.73457031 24.64238281 -11.85351562 24.61914062 C-18.79576729 24.38702887 -24.84152645 24.15847355 -30 19 C-28.94872925 19.00785522 -28.94872925 19.00785522 -27.8762207 19.01586914 C-24.68832299 19.03670852 -21.50043964 19.04968232 -18.3125 19.0625 C-16.65831055 19.07506836 -16.65831055 19.07506836 -14.97070312 19.08789062 C-13.90400391 19.09111328 -12.83730469 19.09433594 -11.73828125 19.09765625 C-10.75899658 19.10289307 -9.77971191 19.10812988 -8.77075195 19.11352539 C-6.04752317 19.00194716 -3.62474197 18.73709105 -1 18 C-0.67 17.34 -0.34 16.68 0 16 C-0.556875 15.86464844 -1.11375 15.72929688 -1.6875 15.58984375 C-8.17270986 13.7604011 -12.25391536 10.72022041 -17 6 C-13.89757608 6 -12.93069145 6.399264 -10.25 7.75 C-6.08869533 9.68422345 -1.87681515 10.89744653 2.5625 12 C8.14284247 13.39283128 12.99666176 15.14094958 18 18 C17.27554688 17.57589844 16.55109375 17.15179688 15.8046875 16.71484375 C2.33478835 8.54310493 2.33478835 8.54310493 0.3515625 1.79296875 C0.17753906 0.90544922 0.17753906 0.90544922 0 0 Z " fill="#EAD6E3" transform="translate(134,29)"/>
<path d="M0 0 C1.32 0.33 2.64 0.66 4 1 C4.33 0.67 4.66 0.34 5 0 C6.85772162 0.08984301 8.71247985 0.24611861 10.5625 0.4375 C11.57441406 0.53933594 12.58632812 0.64117187 13.62890625 0.74609375 C14.41136719 0.82988281 15.19382813 0.91367187 16 1 C15.50242188 1.60972656 15.00484375 2.21945313 14.4921875 2.84765625 C12.74587847 4.8983729 12.74587847 4.8983729 13.125 7.4375 C14.08326937 10.2438603 15.37463959 12.52662547 17 15 C16.01 15 15.02 15 14 15 C13.34 13.35 12.68 11.7 12 10 C11.01 10 10.02 10 9 10 C9 11.65 9 13.3 9 15 C8.38125 14.79375 7.7625 14.5875 7.125 14.375 C6.42375 14.25125 5.7225 14.1275 5 14 C4.34 14.66 3.68 15.32 3 16 C-0.875 14.25 -0.875 14.25 -2 12 C-3.32 12 -4.64 12 -6 12 C-6.66 13.65 -7.32 15.3 -8 17 C-9.32 17 -10.64 17 -12 17 C-12 16.34 -12 15.68 -12 15 C-13.3303125 15.2784375 -13.3303125 15.2784375 -14.6875 15.5625 C-17.90270617 15.98714987 -19.89203107 15.73609791 -23 15 C-24.32 15 -25.64 15 -27 15 C-25.45730076 10.27934033 -23.92205381 5.58335908 -22 1 C-20.35 1.33 -18.7 1.66 -17 2 C-16.34 5.3 -15.68 8.6 -15 12 C-14.34 12 -13.68 12 -13 12 C-13.01160156 11.37351562 -13.02320313 10.74703125 -13.03515625 10.1015625 C-13.04417969 9.28429687 -13.05320312 8.46703125 -13.0625 7.625 C-13.07410156 6.81289063 -13.08570313 6.00078125 -13.09765625 5.1640625 C-13 3 -13 3 -12 1 C-7.30981088 3.05455187 -4.52116507 6.3434055 -1 10 C-0.67 6.7 -0.34 3.4 0 0 Z " fill="#F5E9F1" transform="translate(63,55)"/>
<path d="M0 0 C0.8125 1.625 0.8125 1.625 1 4 C-3.35346488 11.41701425 -11.92089143 14.85383166 -19.875 17.375 C-23.05592513 18.01118503 -25.76825546 18.29379496 -29 18 C-32 16 -32 16 -32.9375 13.625 C-33 11 -33 11 -31.1875 8.6875 C-29 7 -29 7 -27 7 C-26.34 6.34 -25.68 5.68 -25 5 C-22 8.75 -22 8.75 -22 11 C-20.35 10.67 -18.7 10.34 -17 10 C-16.7834375 8.824375 -16.7834375 8.824375 -16.5625 7.625 C-16 5 -16 5 -15 3 C-13.68 3 -12.36 3 -11 3 C-10.401875 2.505 -9.80375 2.01 -9.1875 1.5 C-6.11578816 -0.60631669 -3.63355201 -0.209628 0 0 Z " fill="#FCF4FC" transform="translate(204,31)"/>
<path d="M0 0 C14.83548718 9.59361504 14.83548718 9.59361504 17 15 C17.69380891 19.88893258 17.82064254 24.42404303 15 28.625 C14.34 29.40875 13.68 30.1925 13 31 C12.34 30.34 11.68 29.68 11 29 C10.51273438 29.38671875 10.02546875 29.7734375 9.5234375 30.171875 C1.12497068 36.34093063 -9.48807922 40.19002877 -20 39 C-20.99 38.34 -21.98 37.68 -23 37 C-23.1875 34.375 -23.1875 34.375 -23 32 C-22.566875 32.9590625 -22.566875 32.9590625 -22.125 33.9375 C-21.17176549 36.15206079 -21.17176549 36.15206079 -19 37 C-10.01757957 36.70549441 -0.48870158 34.0118788 6.75 28.5 C9.10520945 25.88310062 9.8011936 24.47911196 10 21 C8.906875 21 7.81375 21 6.6875 21 C4.45833333 21 2.22916667 21 0 21 C0.99 20.5359375 0.99 20.5359375 2 20.0625 C4.44176498 17.54442986 4.27142406 16.71892628 4.25 13.3125 C4.18576167 11.8740202 4.10836453 10.43583001 4 9 C3.34 8.67 2.68 8.34 2 8 C1.3671875 6.15234375 1.3671875 6.15234375 0.875 3.9375 C0.70742187 3.20402344 0.53984375 2.47054688 0.3671875 1.71484375 C0.24601562 1.14894531 0.12484375 0.58304688 0 0 Z " fill="#FCF3FD" transform="translate(194,11)"/>
<path d="M0 0 C2.875 -0.1875 2.875 -0.1875 6 0 C7.96276032 2.94414048 8.25476379 3.80204933 8.5 7.125 C8.7475 9.043125 8.7475 9.043125 9 11 C9.66 11.33 10.32 11.66 11 12 C11.33 10.68 11.66 9.36 12 8 C12.66 8 13.32 8 14 8 C14.33 6.68 14.66 5.36 15 4 C15.66 4 16.32 4 17 4 C17.83764268 5.95649397 18.66999059 7.91525556 19.5 9.875 C19.9640625 10.96554688 20.428125 12.05609375 20.90625 13.1796875 C22 16 22 16 22 18 C21.01 17.67 20.02 17.34 19 17 C19 16.01 19 15.02 19 14 C17.02 14.33 15.04 14.66 13 15 C12.67 15.99 12.34 16.98 12 18 C11.01 18 10.02 18 9 18 C9 16.68 9 15.36 9 14 C8.34 13.67 7.68 13.34 7 13 C7 14.65 7 16.3 7 18 C6.01 18 5.02 18 4 18 C3.67 15.69 3.34 13.38 3 11 C2.01 12.32 1.02 13.64 0 15 C-3.875 13.25 -3.875 13.25 -5 11 C-5.33 13.31 -5.66 15.62 -6 18 C-6.66 18 -7.32 18 -8 18 C-8 13.38 -8 8.76 -8 4 C-6.68 5.32 -5.36 6.64 -4 8 C-1.35815459 8.79681318 -1.35815459 8.79681318 1 9 C1.66 6.69 2.32 4.38 3 2 C2.01 1.34 1.02 0.68 0 0 Z " fill="#E3C8D6" transform="translate(134,52)"/>
<path d="M0 0 C3.33600367 2.05838525 4.8262176 3.7393264 7 7 C7 8.32 7 9.64 7 11 C0.73158976 11.94617513 -5.66664684 12.62907043 -12 12 C-14 10 -14 10 -14.4375 7.125 C-14 4 -14 4 -12.0625 1.625 C-7.9453764 -0.5595962 -4.57179196 -0.83802357 0 0 Z " fill="#FDF6FD" transform="translate(189,7)"/>
<path d="M0 0 C2.44633323 1.43491643 3.99445687 2.94303269 6 5 C5.67 5.66 5.34 6.32 5 7 C4.525625 6.505 4.05125 6.01 3.5625 5.5 C-0.23537562 3.2768533 -3.70129828 3.44787317 -8 4 C-10.67734485 4.77696483 -10.67734485 4.77696483 -12 7 C-12.32061804 9.75514144 -12.18311676 12.20746936 -12 15 C-9.47524538 16.26237731 -7.68799534 16.09856404 -4.875 16.0625 C-3.96492187 16.05347656 -3.05484375 16.04445313 -2.1171875 16.03515625 C-1.41851562 16.02355469 -0.71984375 16.01195313 0 16 C-1.31111111 22.43636364 -1.31111111 22.43636364 -4.0625 24.6875 C-8.55698736 25.16563695 -12.28006869 23.49944304 -16 21 C-17.46877665 18.68678906 -18.03188971 17.55806998 -17.875 14.8125 C-16.33558251 9.86437235 -14.62193978 4.98237085 -11.3125 0.9375 C-7.54110289 -0.59144478 -3.99120774 -0.77204709 0 0 Z " fill="#F5E8F7" transform="translate(188,4)"/>
<path d="M0 0 C1.65 0.33 3.3 0.66 5 1 C5.66 4.3 6.32 7.6 7 11 C7.66 11 8.32 11 9 11 C8.97679687 10.37351562 8.95359375 9.74703125 8.9296875 9.1015625 C8.91164063 8.28429687 8.89359375 7.46703125 8.875 6.625 C8.85179687 5.81289063 8.82859375 5.00078125 8.8046875 4.1640625 C9 2 9 2 11 0 C11 4.62 11 9.24 11 14 C11.66 14 12.32 14 13 14 C13 10.7 13 7.4 13 4 C14.98 5.65 16.96 7.3 19 9 C18.360625 9.598125 17.72125 10.19625 17.0625 10.8125 C14.79689611 12.90810337 14.79689611 12.90810337 14 16 C12.68 16 11.36 16 10 16 C10 15.34 10 14.68 10 14 C8.6696875 14.2784375 8.6696875 14.2784375 7.3125 14.5625 C4.09729383 14.98714987 2.10796893 14.73609791 -1 14 C-2.32 14 -3.64 14 -5 14 C-3.45730076 9.27934033 -1.92205381 4.58335908 0 0 Z " fill="#F4DFED" transform="translate(41,56)"/>
<path d="M0 0 C5.26528574 -0.0497158 10.53043254 -0.08586827 15.79589844 -0.10986328 C17.58433413 -0.11987439 19.37275366 -0.13348733 21.16113281 -0.15087891 C23.74287934 -0.17534362 26.32440804 -0.18653221 28.90625 -0.1953125 C30.09112 -0.21079636 30.09112 -0.21079636 31.29992676 -0.22659302 C36.52311567 -0.22763096 41.00205234 0.43625443 46 2 C46.66 2.66 47.32 3.32 48 4 C38.2771124 4.66481283 28.5584969 5.13244296 18.8125 5.25 C17.94085205 5.27126953 17.0692041 5.29253906 16.17114258 5.31445312 C10.66328759 5.34425696 6.87777825 4.60654298 2 2 C1.34 1.34 0.68 0.68 0 0 Z " fill="#730E4C" transform="translate(104,48)"/>
<path d="M0 0 C0.886875 0.165 1.77375 0.33 2.6875 0.5 C6.26566202 1.12437724 6.26566202 1.12437724 11 1 C11 5.95 11 10.9 11 16 C6 17 6 17 2 17 C1.8453125 16.13375 1.8453125 16.13375 1.6875 15.25 C1.12882054 12.89737445 1.12882054 12.89737445 -0.625 11.0625 C-2 9 -2 9 -1.8125 6.375 C-1 4 -1 4 1 2 C0.67 1.34 0.34 0.68 0 0 Z " fill="#F7E7EF" transform="translate(77,55)"/>
<path d="M0 0 C7 0 7 0 9.4375 1.0625 C11 3 11 3 11.5 6.4375 C11 10 11 10 9.4375 12.4375 C7 14 7 14 0 14 C0 9.38 0 4.76 0 0 Z " fill="#631044" transform="translate(3,56)"/>
<path d="M0 0 C7 0 7 0 9.4375 1.625 C11.47161336 4.71685231 11.60605429 6.36367425 11 10 C9.4375 12.375 9.4375 12.375 7 14 C4.69 14 2.38 14 0 14 C0 9.38 0 4.76 0 0 Z " fill="#F4E3EE" transform="translate(178,56)"/>
<path d="M0 0 C5.61 0 11.22 0 17 0 C17 0.66 17 1.32 17 2 C16.34 2 15.68 2 15 2 C15 4.31 15 6.62 15 9 C14.34 9 13.68 9 13 9 C12.34 8.01 11.68 7.02 11 6 C10.01 7.485 10.01 7.485 9 9 C5.96133201 9.41137202 3.07840297 9.13193156 0 9 C0 6.03 0 3.06 0 0 Z " fill="#F5DBEF" transform="translate(111,78)"/>
<path d="M0 0 C0.721875 0.29132812 1.44375 0.58265625 2.1875 0.8828125 C8.91301813 3.55433776 15.65683385 5.91673317 22.625 7.875 C28.53502001 9.64023895 33.14261133 12.23458243 38 16 C37.01 16.495 37.01 16.495 36 17 C34.322906 16.29473895 32.64829066 15.58243051 30.99267578 14.828125 C27.10544407 13.21265208 22.96977974 12.45375404 18.87304688 11.5390625 C12.78679474 10.1125058 7.82294898 8.03007488 3.125 3.875 C2.52945313 3.35679688 1.93390625 2.83859375 1.3203125 2.3046875 C0.88460937 1.87414063 0.44890625 1.44359375 0 1 C0 0.67 0 0.34 0 0 Z " fill="#792558" transform="translate(117,34)"/>
<path d="M0 0 C1.98 0 3.96 0 6 0 C6 3 6 3 5 5 C5.66 5 6.32 5 7 5 C7.226875 4.360625 7.45375 3.72125 7.6875 3.0625 C9 1 9 1 11.4375 0.0625 C14 0 14 0 15.875 1.125 C17 3 17 3 16.75 5.625 C16 8 16 8 15 9 C12.30917128 8.82364548 9.67148554 8.38164079 7 8 C7 8.66 7 9.32 7 10 C6.01 10 5.02 10 4 10 C3.34 8.68 2.68 7.36 2 6 C1.34 6.99 0.68 7.98 0 9 C0 6.03 0 3.06 0 0 Z " fill="#A47C94" transform="translate(135,78)"/>
<path d="M0 0 C0.66 0.33 1.32 0.66 2 1 C2 2.65 2 4.3 2 6 C4.475 6.99 4.475 6.99 7 8 C8.44 14.12 8.44 14.12 6.6875 17.625 C-0.79922295 24.24117377 -11.53638586 28.02052596 -21.5 28.3125 C-25 28 -25 28 -28 26 C-28.1875 23.375 -28.1875 23.375 -28 21 C-27.71125 21.639375 -27.4225 22.27875 -27.125 22.9375 C-26.17176549 25.15206079 -26.17176549 25.15206079 -24 26 C-15.01757957 25.70549441 -5.48870158 23.0118788 1.75 17.5 C4.10520945 14.88310062 4.8011936 13.47911196 5 10 C3.906875 10 2.81375 10 1.6875 10 C-0.54166667 10 -2.77083333 10 -5 10 C-4.0409375 9.4740625 -4.0409375 9.4740625 -3.0625 8.9375 C-0.17836168 6.22815794 -0.2899178 3.84141089 0 0 Z " fill="#9E58A9" transform="translate(199,22)"/>
<path d="M0 0 C2.9375 0.8125 2.9375 0.8125 4.9375 2.8125 C5.375 6.1875 5.375 6.1875 4.9375 9.8125 C2.75 12.3125 2.75 12.3125 -0.0625 13.8125 C-2.875 13.5625 -2.875 13.5625 -5.0625 12.8125 C-5.041875 11.905 -5.02125 10.9975 -5 10.0625 C-4.90741187 6.94724745 -4.90741187 6.94724745 -5.75 4.625 C-6.0625 2.8125 -6.0625 2.8125 -5 1 C-3.0625 -0.1875 -3.0625 -0.1875 0 0 Z " fill="#FCF3FB" transform="translate(194.0625,19.1875)"/>
<path d="M0 0 C0.639375 0.556875 1.27875 1.11375 1.9375 1.6875 C-1.13140187 3.22195094 -3.76344266 2.23734289 -7.0625 1.6875 C-7.0625 6.3075 -7.0625 10.9275 -7.0625 15.6875 C-2.41663108 15.20265724 -2.41663108 15.20265724 1.9375 13.6875 C1.9375 15.0075 1.9375 16.3275 1.9375 17.6875 C0.54211746 17.74222088 -0.85390897 17.78061538 -2.25 17.8125 C-3.41595703 17.84730469 -3.41595703 17.84730469 -4.60546875 17.8828125 C-7.0625 17.6875 -7.0625 17.6875 -12.0625 15.6875 C-12.0625 11.0675 -12.0625 6.4475 -12.0625 1.6875 C-3.81634615 -1.63557692 -3.81634615 -1.63557692 0 0 Z " fill="#FCEAF4" transform="translate(185.0625,54.3125)"/>
<path d="M0 0 C1.17369141 -0.02513672 1.17369141 -0.02513672 2.37109375 -0.05078125 C5.02377163 0.38896749 5.885467 1.26878454 7.5625 3.3125 C7.8925 2.3225 8.2225 1.3325 8.5625 0.3125 C9.2225 0.6425 9.8825 0.9725 10.5625 1.3125 C9.2425 3.9525 7.9225 6.5925 6.5625 9.3125 C6.2325 7.9925 5.9025 6.6725 5.5625 5.3125 C4.2425 5.3125 2.9225 5.3125 1.5625 5.3125 C1.8925 6.6325 2.2225 7.9525 2.5625 9.3125 C-0.8125 9.4375 -0.8125 9.4375 -4.4375 9.3125 C-6.4375 7.3125 -6.4375 7.3125 -6.6875 4.8125 C-6.23811748 0.31867476 -4.00650313 0.01973647 0 0 Z " fill="#B287A1" transform="translate(32.4375,77.6875)"/>
<path d="M0 0 C0.99 0 1.98 0 3 0 C3.33 0.66 3.66 1.32 4 2 C4.33 1.34 4.66 0.68 5 0 C6.98 0 8.96 0 11 0 C11 0.66 11 1.32 11 2 C10.34 2 9.68 2 9 2 C9 4.31 9 6.62 9 9 C6.69 9.33 4.38 9.66 2 10 C2 9.01 2 8.02 2 7 C0.68 7 -0.64 7 -2 7 C-2 7.66 -2 8.32 -2 9 C-3.65 9 -5.3 9 -7 9 C-7 8.01 -7 7.02 -7 6 C-5.68 6 -4.36 6 -3 6 C-2.01 4.02 -1.02 2.04 0 0 Z " fill="#F8E5F2" transform="translate(174,78)"/>
<path d="M0 0 C5.94 0 11.88 0 18 0 C17.22404875 3.10380501 16.4731994 5.25002779 15 8 C12.6875 8.25 12.6875 8.25 10 8 C9.01 6.68 8.02 5.36 7 4 C6.67 8.29 6.34 12.58 6 17 C4 15 4 15 3.76953125 12.9765625 C3.78371094 12.20054688 3.79789062 11.42453125 3.8125 10.625 C3.81894531 9.85414062 3.82539062 9.08328125 3.83203125 8.2890625 C3.99404849 6.08110656 4.39365106 4.12464668 5 2 C3.35 1.67 1.7 1.34 0 1 C0 0.67 0 0.34 0 0 Z " fill="#F2DCEB" transform="translate(120,53)"/>
<path d="M0 0 C0.66 0 1.32 0 2 0 C2 2.31 2 4.62 2 7 C3.91466367 6.87822312 3.91466367 6.87822312 6 6 C6.495 5.175 6.99 4.35 7.5 3.5 C9 1 9 1 11 0.0625 C13 0 13 0 16 2 C15.67 4.31 15.34 6.62 15 9 C10.05 9 5.1 9 0 9 C0 6.03 0 3.06 0 0 Z " fill="#987185" transform="translate(83,78)"/>
<path d="M0 0 C1.98 0 3.96 0 6 0 C6 0.66 6 1.32 6 2 C4.68 2 3.36 2 2 2 C2 2.66 2 3.32 2 4 C3.32 4 4.64 4 6 4 C6.33 4.66 6.66 5.32 7 6 C7.226875 5.195625 7.45375 4.39125 7.6875 3.5625 C8.120625 2.716875 8.55375 1.87125 9 1 C11.625 0.1875 11.625 0.1875 14 0 C14.33 0.66 14.66 1.32 15 2 C13.35 2 11.7 2 10 2 C10.27034634 4.43717258 10.27034634 4.43717258 11 7 C11.99 7.66 12.98 8.32 14 9 C9.23692563 9.95261487 4.8333472 10.08333357 0 10 C0 6.7 0 3.4 0 0 Z " fill="#C09CB2" transform="translate(55,78)"/>
<path d="M0 0 C2.44633323 1.43491643 3.99445687 2.94303269 6 5 C5.67 5.66 5.34 6.32 5 7 C4.525625 6.505 4.05125 6.01 3.5625 5.5 C-0.22972786 3.2801593 -3.70609216 3.43751392 -8 4 C-11.37855906 5.51146063 -12.01335489 7.02440721 -13.8125 10.3125 C-15.25872368 14.80340511 -15.10631185 17.78737631 -13 22 C-16 21 -16 21 -17.25 19.25 C-18.90477102 14.28568693 -16.19868463 9.53004243 -14.0859375 5.02734375 C-11.02070643 -0.69515599 -6.02126593 -1.16473538 0 0 Z " fill="#A261A7" transform="translate(188,4)"/>
<path d="M0 0 C2.64752004 2.57784846 4.94432065 4.91648098 7 8 C7.42152344 7.4225 7.84304687 6.845 8.27734375 6.25 C9.09912109 5.13625 9.09912109 5.13625 9.9375 4 C10.48277344 3.2575 11.02804688 2.515 11.58984375 1.75 C12.28787109 0.88375 12.28787109 0.88375 13 0 C13.33 0 13.66 0 14 0 C14 4.62 14 9.24 14 14 C13.34 14 12.68 14 12 14 C11.67 11.69 11.34 9.38 11 7 C10.01 8.32 9.02 9.64 8 11 C4.125 9.25 4.125 9.25 3 7 C2.67 9.31 2.34 11.62 2 14 C1.34 14 0.68 14 0 14 C0 9.38 0 4.76 0 0 Z " fill="#7F2C5B" transform="translate(126,56)"/>
<path d="M0 0 C6 0 6 0 8 1 C8.125 6.75 8.125 6.75 7 9 C7.89363605 11.60931266 7.89363605 11.60931266 9 14 C8.01 13.67 7.02 13.34 6 13 C5.3125 10.9375 5.3125 10.9375 5 9 C3.68 9 2.36 9 1 9 C1 10.65 1 12.3 1 14 C0.67 14 0.34 14 0 14 C0 9.38 0 4.76 0 0 Z " fill="#752657" transform="translate(19,56)"/>
<path d="M0 0 C0.99 0.33 1.98 0.66 3 1 C3 2.65 3 4.3 3 6 C4.32 6.33 5.64 6.66 7 7 C7.33 4.69 7.66 2.38 8 0 C8.66 0 9.32 0 10 0 C10.33 0.66 10.66 1.32 11 2 C12.32 1.34 13.64 0.68 15 0 C13.46395304 3.14191424 11.94268841 6.08596738 10 9 C7.87109375 9.546875 7.87109375 9.546875 5.4375 9.75 C4.63183594 9.82734375 3.82617188 9.9046875 2.99609375 9.984375 C2.00802734 9.99210937 2.00802734 9.99210937 1 10 C0 9 0 9 -0.09765625 6.93359375 C-0.08605469 6.10988281 -0.07445312 5.28617187 -0.0625 4.4375 C-0.05347656 3.61121094 -0.04445312 2.78492187 -0.03515625 1.93359375 C-0.02355469 1.29550781 -0.01195312 0.65742187 0 0 Z " fill="#C4A4B9" transform="translate(154,78)"/>
<path d="M0 0 C1.65322266 0.01740234 1.65322266 0.01740234 3.33984375 0.03515625 C4.99693359 0.04869141 4.99693359 0.04869141 6.6875 0.0625 C7.54214844 0.07410156 8.39679688 0.08570313 9.27734375 0.09765625 C8.61734375 0.75765625 7.95734375 1.41765625 7.27734375 2.09765625 C6.56326041 4.08122108 5.89116633 6.08081062 5.27734375 8.09765625 C4.61734375 8.09765625 3.95734375 8.09765625 3.27734375 8.09765625 C2.94734375 9.41765625 2.61734375 10.73765625 2.27734375 12.09765625 C1.28734375 11.76765625 0.29734375 11.43765625 -0.72265625 11.09765625 C-0.91796875 9.07942708 -1.11328125 7.06119792 -1.30859375 5.04296875 C-1.58640374 2.8709738 -1.58640374 2.8709738 -3.72265625 1.09765625 C-2.72265625 0.09765625 -2.72265625 0.09765625 0 0 Z " fill="#FCF6FC" transform="translate(142.72265625,51.90234375)"/>
<path d="M0 0 C3.45073325 2.92986785 6.79810715 5.79810715 10 9 C10.33 6.03 10.66 3.06 11 0 C11.66 0 12.32 0 13 0 C13 4.62 13 9.24 13 14 C9.54718834 12.84906278 8.61917837 11.6794007 6.3125 8.9375 C5.68988281 8.20402344 5.06726562 7.47054687 4.42578125 6.71484375 C3.95527344 6.14894531 3.48476563 5.58304688 3 5 C2.67 7.97 2.34 10.94 2 14 C1.34 14 0.68 14 0 14 C0 9.38 0 4.76 0 0 Z " fill="#77345E" transform="translate(52,56)"/>
<path d="M0 0 C3.45073325 2.92986785 6.79810715 5.79810715 10 9 C10.33 6.03 10.66 3.06 11 0 C11.66 0 12.32 0 13 0 C13 4.62 13 9.24 13 14 C12.34 14 11.68 14 11 14 C11 13.34 11 12.68 11 12 C10.34 12 9.68 12 9 12 C7.4921875 10.46875 7.4921875 10.46875 5.875 8.5 C5.33617187 7.8503125 4.79734375 7.200625 4.2421875 6.53125 C3.83226562 6.0259375 3.42234375 5.520625 3 5 C2.67 7.97 2.34 10.94 2 14 C1.34 14 0.68 14 0 14 C0 9.38 0 4.76 0 0 Z " fill="#752657" transform="translate(160,56)"/>
<path d="M0 0 C0.928125 0.825 1.85625 1.65 2.8125 2.5 C5.96061143 5.21212044 9.24237131 7.65026005 12.625 10.0625 C16.45281598 12.80568037 19.84076214 15.51394443 23 19 C22.67 19.66 22.34 20.32 22 21 C18.98015354 19.02871134 15.98413041 17.02494564 13 15 C12.27296875 14.50886719 11.5459375 14.01773438 10.796875 13.51171875 C6.10547185 10.1901337 3.02096609 6.9090699 0 2 C0 1.34 0 0.68 0 0 Z " fill="#751C52" transform="translate(134,29)"/>
<path d="M0 0 C0.66 0 1.32 0 2 0 C2.83764268 1.95649397 3.66999059 3.91525556 4.5 5.875 C4.9640625 6.96554688 5.428125 8.05609375 5.90625 9.1796875 C7 12 7 12 7 14 C6.01 13.67 5.02 13.34 4 13 C4 12.01 4 11.02 4 10 C2.02 10 0.04 10 -2 10 C-2.33 11.32 -2.66 12.64 -3 14 C-3.66 14 -4.32 14 -5 14 C-3.45730076 9.27934033 -1.92205381 4.58335908 0 0 Z " fill="#994B78" transform="translate(41,56)"/>
<path d="M0 0 C0.66 0 1.32 0 2 0 C2.83764268 1.95649397 3.66999059 3.91525556 4.5 5.875 C4.9640625 6.96554688 5.428125 8.05609375 5.90625 9.1796875 C7 12 7 12 7 14 C6.01 13.67 5.02 13.34 4 13 C4 12.01 4 11.02 4 10 C2.02 10.33 0.04 10.66 -2 11 C-2.33 11.99 -2.66 12.98 -3 14 C-3.66 14 -4.32 14 -5 14 C-3.45730076 9.27934033 -1.92205381 4.58335908 0 0 Z " fill="#984E7D" transform="translate(149,56)"/>
<path d="M0 0 C2.9777759 2.49996659 3.94548483 5.04711071 5.1875 8.6875 C5.53167969 9.68136719 5.87585938 10.67523438 6.23046875 11.69921875 C6.48441406 12.45847656 6.73835938 13.21773437 7 14 C6.01 14 5.02 14 4 14 C3.67 13.01 3.34 12.02 3 11 C0.03 10.505 0.03 10.505 -3 10 C-3.33 11.32 -3.66 12.64 -4 14 C-4.66 13.67 -5.32 13.34 -6 13 C-5.1905146 11.01959844 -4.37732831 9.04070923 -3.5625 7.0625 C-3.11003906 5.96035156 -2.65757813 4.85820313 -2.19140625 3.72265625 C-1 1 -1 1 0 0 Z " fill="#9F537E" transform="translate(108,56)"/>
<path d="M0 0 C14.86431917 9.61225973 14.86431917 9.61225973 17 15 C17.30078125 17.47265625 17.30078125 17.47265625 17.3125 20.0625 C17.33763672 21.34833984 17.33763672 21.34833984 17.36328125 22.66015625 C16.93462864 25.42104781 16.14005895 26.27778897 14 28 C14.02320313 27.27554688 14.04640625 26.55109375 14.0703125 25.8046875 C14.30752616 18.17191457 14.30752616 18.17191457 12 11 C10.67475974 10.31738702 9.33996583 9.65323334 8 9 C6.54851225 7.87695108 5.1317824 6.70778017 3.75 5.5 C3.04359375 4.8915625 2.3371875 4.283125 1.609375 3.65625 C0 2 0 2 0 0 Z " fill="#A365A8" transform="translate(194,11)"/>
<path d="M0 0 C3.06098195 3.06098195 3.82645413 4.69822763 5.1875 8.6875 C5.53167969 9.68136719 5.87585938 10.67523438 6.23046875 11.69921875 C6.48441406 12.45847656 6.73835937 13.21773437 7 14 C6.01 14 5.02 14 4 14 C3.67 13.01 3.34 12.02 3 11 C0.03 10.505 0.03 10.505 -3 10 C-3.33 11.32 -3.66 12.64 -4 14 C-4.66 13.67 -5.32 13.34 -6 13 C-4.02 8.71 -2.04 4.42 0 0 Z " fill="#6E2551" transform="translate(198,56)"/>
<path d="M0 0 C1.65 0 3.3 0 5 0 C7 2 7 2 7.3125 5 C7.209375 5.99 7.10625 6.98 7 8 C4 10 4 10 0 10 C0 6.7 0 3.4 0 0 Z " fill="#F5E0EB" transform="translate(5,58)"/>
<path d="M0 0 C1.875 0.6875 1.875 0.6875 2.875 1.6875 C3.0625 4.125 3.0625 4.125 2.875 6.6875 C2.215 7.3475 1.555 8.0075 0.875 8.6875 C-3.68055556 8.13194444 -3.68055556 8.13194444 -5.125 6.6875 C-5.375 4.25 -5.375 4.25 -5.125 1.6875 C-2.125 -0.3125 -2.125 -0.3125 0 0 Z " fill="#7A4963" transform="translate(77.125,78.3125)"/>
<path d="M0 0 C7 0 7 0 9.4375 1.625 C11.47161336 4.71685231 11.60605429 6.36367425 11 10 C9.4375 12.375 9.4375 12.375 7 14 C4.69 14 2.38 14 0 14 C0 9.38 0 4.76 0 0 Z M1 1 C1 4.63 1 8.26 1 12 C3.91652174 12.16681109 3.91652174 12.16681109 7 12 C9.28930236 10.11861241 9.28930236 10.11861241 9.375 7.0625 C9.29891329 3.95163458 9.29891329 3.95163458 7.25 2.125 C4.82297795 0.7018576 4.82297795 0.7018576 1 1 Z " fill="#69194B" transform="translate(178,56)"/>
<path d="M0 0 C6.64838306 0 11.70043203 3.17253424 17 7 C17.33 7.66 17.66 8.32 18 9 C17.45472656 8.80664062 16.90945312 8.61328125 16.34765625 8.4140625 C11.54899197 6.75708782 6.84115174 5.45206514 1.84765625 4.52734375 C0 4 0 4 -2 2 C-1.34 1.34 -0.68 0.68 0 0 Z " fill="#76174D" transform="translate(137,42)"/>
<path d="M0 0 C1.32 0 2.64 0 4 0 C4 4.95 4 9.9 4 15 C2.68 14.67 1.36 14.34 0 14 C0 9.38 0 4.76 0 0 Z " fill="#B0809C" transform="translate(84,56)"/>
<path d="M0 0 C0.33 0 0.66 0 1 0 C1.33 1.65 1.66 3.3 2 5 C3.65 3.35 5.3 1.7 7 0 C7.66 0.33 8.32 0.66 9 1 C8.484375 1.391875 7.96875 1.78375 7.4375 2.1875 C5.73342637 3.92553925 5.73342637 3.92553925 6.125 6.375 C7.07267697 9.21803092 8.35782213 11.50103367 10 14 C9.01 14 8.02 14 7 14 C6.34 12.35 5.68 10.7 5 9 C4.01 9 3.02 9 2 9 C2 10.65 2 12.3 2 14 C1.34 14 0.68 14 0 14 C0 9.38 0 4.76 0 0 Z " fill="#7A295A" transform="translate(70,56)"/>
<path d="M0 0 C0.99 0 1.98 0 3 0 C3 3.96 3 7.92 3 12 C5.31 12 7.62 12 10 12 C10 12.66 10 13.32 10 14 C6.7 14 3.4 14 0 14 C0 9.38 0 4.76 0 0 Z " fill="#8B4772" transform="translate(208,56)"/>
<path d="M0 0 C1.98 0 3.96 0 6 0 C5.67 1.32 5.34 2.64 5 4 C5.99 4.66 6.98 5.32 8 6 C8 6.66 8 7.32 8 8 C5.36 8.33 2.72 8.66 0 9 C0 6.03 0 3.06 0 0 Z " fill="#BFA6B5" transform="translate(111,78)"/>
<path d="M0 0 C0.66 0 1.32 0 2 0 C2 4.62 2 9.24 2 14 C4.31 14 6.62 14 9 14 C9 14.66 9 15.32 9 16 C5.7 16 2.4 16 -1 16 C-0.67 10.72 -0.34 5.44 0 0 Z " fill="#E9CADE" transform="translate(1,56)"/>
<path d="M0 0 C2.97 0.495 2.97 0.495 6 1 C6.33 1.99 6.66 2.98 7 4 C7.33 3.01 7.66 2.02 8 1 C8.99 1 9.98 1 11 1 C11 4.3 11 7.6 11 11 C6.84641746 7.56530675 3.21124658 4.36729534 0 0 Z " fill="#E3B8D0" transform="translate(52,55)"/>
<path d="M0 0 C1.65 0 3.3 0 5 0 C4.773125 0.66 4.54625 1.32 4.3125 2 C3.93135171 5.65902355 4.90721266 7.66722078 6.296875 10.99609375 C7.24831675 13.70770275 7.21319708 16.1573722 7 19 C5.68 18.67 4.36 18.34 3 18 C3.33 17.34 3.66 16.68 4 16 C4.66 16.33 5.32 16.66 6 17 C5.6390625 16.15695313 5.278125 15.31390625 4.90625 14.4453125 C4.4421875 13.34960938 3.978125 12.25390625 3.5 11.125 C3.0359375 10.03445312 2.571875 8.94390625 2.09375 7.8203125 C1 5 1 5 1 3 C0.34 3 -0.32 3 -1 3 C-0.67 2.01 -0.34 1.02 0 0 Z " fill="#F8E5F2" transform="translate(150,53)"/>
<path d="M0 0 C4.55384615 -0.36923077 4.55384615 -0.36923077 6.8125 1.5 C7.204375 1.995 7.59625 2.49 8 3 C8.33 2.01 8.66 1.02 9 0 C9.66 0.33 10.32 0.66 11 1 C9.68 3.64 8.36 6.28 7 9 C6.67 7.68 6.34 6.36 6 5 C4.68 5 3.36 5 2 5 C2.33 6.32 2.66 7.64 3 9 C2.34 9 1.68 9 1 9 C0.67 6.03 0.34 3.06 0 0 Z " fill="#F2E0ED" transform="translate(32,78)"/>
<path d="M0 0 C0.28875 0.639375 0.5775 1.27875 0.875 1.9375 C1.82823451 4.15206079 1.82823451 4.15206079 4 5 C10.43587703 4.69352967 15.64581736 3.23009305 21.6171875 0.83984375 C24 0 24 0 27 0 C27 0.66 27 1.32 27 2 C25.27255984 2.65043719 23.5429631 3.29514844 21.8125 3.9375 C20.84957031 4.29714844 19.88664062 4.65679687 18.89453125 5.02734375 C13.46056431 6.85333264 8.69334538 7.27548445 3 7 C2.01 6.34 1.02 5.68 0 5 C-0.1875 2.375 -0.1875 2.375 0 0 Z " fill="#9F63A8" transform="translate(171,43)"/>
<path d="M0 0 C0.66 0 1.32 0 2 0 C2 4.29 2 8.58 2 13 C0.68 13 -0.64 13 -2 13 C-5.125 6.375 -5.125 6.375 -4 3 C-3.01 4.65 -2.02 6.3 -1 8 C-0.67 5.36 -0.34 2.72 0 0 Z " fill="#F4E6ED" transform="translate(206,56)"/>
<path d="M0 0 C0.33 0 0.66 0 1 0 C1.33 2.64 1.66 5.28 2 8 C3.98 8 5.96 8 8 8 C8.33 9.32 8.66 10.64 9 12 C6.69 12.33 4.38 12.66 2 13 C0.44245777 10.40624165 -0.97703944 7.85268897 -2 5 C-1.25 2 -1.25 2 0 0 Z " fill="#E3D3E0" transform="translate(27,59)"/>
<path d="M0 0 C-0.495 0.37125 -0.99 0.7425 -1.5 1.125 C-3.59755514 3.74694393 -3.21743835 5.73842472 -3 9 C-3.66 9 -4.32 9 -5 9 C-5.33 7.35 -5.66 5.7 -6 4 C-6.99 4 -7.98 4 -9 4 C-8.01 4.99 -7.02 5.98 -6 7 C-6.33 7.99 -6.66 8.98 -7 10 C-8.32 9.34 -9.64 8.68 -11 8 C-11 6.35 -11 4.7 -11 3 C-6.98213116 0.99106558 -4.56087444 -0.12002301 0 0 Z " fill="#F0E3E9" transform="translate(76,77)"/>
<path d="M0 0 C1.32 1.32 2.64 2.64 4 4 C6.99332739 3.0022242 7.94766315 2.2477975 10 0 C10 2.64 10 5.28 10 8 C7.36 7.34 4.72 6.68 2 6 C2 6.66 2 7.32 2 8 C1.34 8 0.68 8 0 8 C0 5.36 0 2.72 0 0 Z " fill="#E8C8D8" transform="translate(128,62)"/>
<path d="M0 0 C5.46875 4.4921875 5.46875 4.4921875 7 6 C7 6.66 7 7.32 7 8 C7.66 8 8.32 8 9 8 C8.67 8.66 8.34 9.32 8 10 C5.69 9.34 3.38 8.68 1 8 C0.67 8.66 0.34 9.32 0 10 C0 6.7 0 3.4 0 0 Z " fill="#EBC7E2" transform="translate(162,60)"/>
<path d="M0 0 C3.3 0 6.6 0 10 0 C10 0.66 10 1.32 10 2 C8.68 2 7.36 2 6 2 C6 5.96 6 9.92 6 14 C5.34 14 4.68 14 4 14 C4 9.71 4 5.42 4 1 C2.68 0.67 1.36 0.34 0 0 Z " fill="#7F335C" transform="translate(90,56)"/>
<path d="M0 0 C1.98 0.99 1.98 0.99 4 2 C4 2.99 4 3.98 4 5 C5.65 4.67 7.3 4.34 9 4 C8.01 6.64 7.02 9.28 6 12 C5.67 10.68 5.34 9.36 5 8 C4.34 8 3.68 8 3 8 C3 8.99 3 9.98 3 11 C2.01 10.67 1.02 10.34 0 10 C0.33 9.67 0.66 9.34 1 9 C1.14636054 5.63370749 1.07193479 3.21580438 0 0 Z " fill="#F2D1E8" transform="translate(187,57)"/>
<path d="M0 0 C0.99 0 1.98 0 3 0 C4.20272819 2.40545638 4.10071472 3.94996953 4.0625 6.625 C4.05347656 7.44226563 4.04445313 8.25953125 4.03515625 9.1015625 C4.02355469 9.72804688 4.01195312 10.35453125 4 11 C3.01 10.67 2.02 10.34 1 10 C1 10.66 1 11.32 1 12 C-0.32 11.67 -1.64 11.34 -3 11 C-2.505 10.67 -2.01 10.34 -1.5 10 C0.88179561 6.82427253 0.19168226 3.89753934 0 0 Z " fill="#F0DDEA" transform="translate(13,58)"/>
<path d="M0 0 C3.43742918 -0.05802698 6.87473253 -0.09360486 10.3125 -0.125 C11.28896484 -0.14175781 12.26542969 -0.15851562 13.27148438 -0.17578125 C14.20927734 -0.18222656 15.14707031 -0.18867188 16.11328125 -0.1953125 C16.97735596 -0.20578613 17.84143066 -0.21625977 18.73168945 -0.22705078 C21 0 21 0 24 2 C23.67 2.66 23.34 3.32 23 4 C22.01 3.34 21.02 2.68 20 2 C17.97307257 1.97591737 17.97307257 1.97591737 15.8125 2.375 C11.44544844 2.95917329 7.40755024 3.30396898 3 3 C1.2734375 1.484375 1.2734375 1.484375 0 0 Z " fill="#A37AA8" transform="translate(175,18)"/>
<path d="M0 0 C1.32 0.33 2.64 0.66 4 1 C4 1.99 4 2.98 4 4 C3.34 4 2.68 4 2 4 C2 6.97 2 9.94 2 13 C-0.0625 11.3125 -0.0625 11.3125 -2 9 C-1.83849795 5.60845705 -1.41703243 4.41703243 1 2 C0.67 1.34 0.34 0.68 0 0 Z " fill="#EBD3E2" transform="translate(77,55)"/>
<path d="M0 0 C2.64 0.33 5.28 0.66 8 1 C6.35830472 3.02054804 4.69088222 5.02043058 3 7 C2.67 7 2.34 7 2 7 C1.67 9.64 1.34 12.28 1 15 C0.67 15 0.34 15 0 15 C0 10.05 0 5.1 0 0 Z " fill="#CD9FBD" transform="translate(69,55)"/>
<path d="M0 0 C1.53914062 0.96873047 1.53914062 0.96873047 3.109375 1.95703125 C4.14578125 2.58996094 5.1821875 3.22289062 6.25 3.875 C8.859375 5.76953125 8.859375 5.76953125 10.859375 8.76953125 C10.14910156 8.48078125 9.43882812 8.19203125 8.70703125 7.89453125 C4.99630105 6.42856376 1.23997262 5.10438977 -2.51953125 3.76953125 C-4.81811698 2.89257455 -6.9664757 1.91543582 -9.140625 0.76953125 C-5.44102462 -0.9307342 -3.86939485 -1.51599425 0 0 Z " fill="#EEC3E1" transform="translate(142.140625,39.23046875)"/>
<path d="M0 0 C0.66 0.33 1.32 0.66 2 1 C-0.44816054 7.73244147 -0.44816054 7.73244147 -3.0625 9 C-5 9 -5 9 -7 8 C-7 7.34 -7 6.68 -7 6 C-6.34 5.67 -5.68 5.34 -5 5 C-4.67 4.01 -4.34 3.02 -4 2 C-2.68 2 -1.36 2 0 2 C0 1.34 0 0.68 0 0 Z " fill="#FEF7FE" transform="translate(186,20)"/>
<path d="M0 0 C0.66 0 1.32 0 2 0 C2.99 2.64 3.98 5.28 5 8 C4.34 8 3.68 8 3 8 C3 7.34 3 6.68 3 6 C1.68 6 0.36 6 -1 6 C-1 6.66 -1 7.32 -1 8 C-2.65 8 -4.3 8 -6 8 C-6 7.01 -6 6.02 -6 5 C-4.68 5 -3.36 5 -2 5 C-1.34 3.35 -0.68 1.7 0 0 Z " fill="#93627E" transform="translate(173,79)"/>
<path d="M0 0 C2.31 0 4.62 0 7 0 C6.37240135 2.92879371 5.41377341 5.36095629 4 8 C2.68 7.67 1.36 7.34 0 7 C0.185625 6.21625 0.37125 5.4325 0.5625 4.625 C1.25962266 2.02910225 1.25962266 2.02910225 0 0 Z " fill="#FEF7FE" transform="translate(131,53)"/>
<path d="M0 0 C1.98 1.65 3.96 3.3 6 5 C6.33 3.35 6.66 1.7 7 0 C7.33 0 7.66 0 8 0 C8 2.97 8 5.94 8 9 C6.35 7.68 4.7 6.36 3 5 C2.67 6.32 2.34 7.64 2 9 C1.34 9 0.68 9 0 9 C0 6.03 0 3.06 0 0 Z " fill="#834B6A" transform="translate(44,78)"/>
<path d="M0 0 C1.95901454 0.11382653 3.9172338 0.24141125 5.875 0.375 C6.96554688 0.44460937 8.05609375 0.51421875 9.1796875 0.5859375 C12 1 12 1 14 3 C13.67 3.66 13.34 4.32 13 5 C7.28758534 4.61271765 4.26311718 4.12989477 0 0 Z " fill="#722252" transform="translate(104,48)"/>
<path d="M0 0 C6.76761128 0.94457629 12.8600433 1.93002165 19 5 C15.51425922 6.16191359 13.72870045 5.49739343 10.2734375 4.546875 C6.56157053 3.65398604 2.79693174 3.33398937 -1 3 C-0.67 2.01 -0.34 1.02 0 0 Z " fill="#EBBCE0" transform="translate(134,45)"/>
<path d="M0 0 C2 2 2 2 3 4 C2.72057545 5.67654729 2.39171753 7.34608154 2 9 C1.01 8.01 0.02 7.02 -1 6 C-3.475 7.485 -3.475 7.485 -6 9 C-6 6 -6 6 -3.5625 3.375 C-2.716875 2.59125 -1.87125 1.8075 -1 1 C-0.67 0.67 -0.34 0.34 0 0 Z " fill="#DED5DD" transform="translate(180,31)"/>
<path d="M0 0 C0.33 0.66 0.66 1.32 1 2 C0.67 2.66 0.34 3.32 0 4 C1.65 4 3.3 4 5 4 C5.33 3.34 5.66 2.68 6 2 C6.99 4.31 7.98 6.62 9 9 C8.01 9 7.02 9 6 9 C5.67 8.01 5.34 7.02 5 6 C2.03 5.505 2.03 5.505 -1 5 C-1.33 6.32 -1.66 7.64 -2 9 C-2.66 8.67 -3.32 8.34 -4 8 C-2.68 5.36 -1.36 2.72 0 0 Z " fill="#6E274C" transform="translate(106,61)"/>
<path d="M0 0 C1.98 0 3.96 0 6 0 C6.33 0.99 6.66 1.98 7 3 C5.56640625 5.48046875 5.56640625 5.48046875 3.5625 8.1875 C2.90378906 9.08855469 2.24507812 9.98960938 1.56640625 10.91796875 C1.04949219 11.60503906 0.53257812 12.29210937 0 13 C-0.99 12.34 -1.98 11.68 -3 11 C-3 10.34 -3 9.68 -3 9 C-1.68 9 -0.36 9 1 9 C1.66 6.69 2.32 4.38 3 2 C2.01 1.34 1.02 0.68 0 0 Z " fill="#F4D3EB" transform="translate(134,52)"/>
<path d="M0 0 C0.721875 0.515625 1.44375 1.03125 2.1875 1.5625 C-0.88140187 3.09695094 -3.51344266 2.11234289 -6.8125 1.5625 C-6.8125 6.1825 -6.8125 10.8025 -6.8125 15.5625 C-7.1425 15.5625 -7.4725 15.5625 -7.8125 15.5625 C-7.8125 10.2825 -7.8125 5.0025 -7.8125 -0.4375 C-2.8125 -1.4375 -2.8125 -1.4375 0 0 Z " fill="#CEAFC3" transform="translate(184.8125,54.4375)"/>
<path d="M0 0 C2.15199754 1.73070701 2.93393358 2.60619233 3.3984375 5.375 C3.39070312 6.24125 3.38296875 7.1075 3.375 8 C3.38273438 8.86625 3.39046875 9.7325 3.3984375 10.625 C2.93393358 13.39380767 2.15199754 14.26929299 0 16 C0.01160156 15.25234375 0.02320313 14.5046875 0.03515625 13.734375 C0.04417969 12.74953125 0.05320313 11.7646875 0.0625 10.75 C0.07410156 9.77546875 0.08570313 8.8009375 0.09765625 7.796875 C0.01180181 5.33800393 -0.3986897 3.36190351 -1 1 C-0.67 0.67 -0.34 0.34 0 0 Z " fill="#9956A2" transform="translate(208,23)"/>
<path d="M0 0 C1.32 1.32 2.64 2.64 4 4 C3.953125 6.578125 3.953125 6.578125 3.25 9.25 C3.02828125 10.14203125 2.8065625 11.0340625 2.578125 11.953125 C2.38734375 12.62859375 2.1965625 13.3040625 2 14 C1.34 14 0.68 14 0 14 C0 9.38 0 4.76 0 0 Z " fill="#701C4D" transform="translate(126,56)"/>
<path d="M0 0 C0.66 0.33 1.32 0.66 2 1 C2 2.65 2 4.3 2 6 C4.475 6.99 4.475 6.99 7 8 C5 10 5 10 1.5625 10.125 C0.386875 10.08375 -0.78875 10.0425 -2 10 C-2.99 10 -3.98 10 -5 10 C-4.360625 9.649375 -3.72125 9.29875 -3.0625 8.9375 C-0.17836168 6.22815794 -0.2899178 3.84141089 0 0 Z " fill="#B791BB" transform="translate(199,22)"/>
<path d="M0 0 C2.89932357 2.39509338 3.50168276 4.31245243 4 8 C3.01 7.67 2.02 7.34 1 7 C1 6.01 1 5.02 1 4 C-0.98 4.33 -2.96 4.66 -5 5 C-5.33 5.99 -5.66 6.98 -6 8 C-6.66 8 -7.32 8 -8 8 C-7.34 6.02 -6.68 4.04 -6 2 C-3.03 2.495 -3.03 2.495 0 3 C0 2.01 0 1.02 0 0 Z " fill="#71274F" transform="translate(152,62)"/>
<path d="M0 0 C1.5625 1.125 1.5625 1.125 3 3 C2.6875 6.1875 2.6875 6.1875 2 9 C0.68 9 -0.64 9 -2 9 C-3 6 -3 6 -1.5625 2.8125 C-1.046875 1.884375 -0.53125 0.95625 0 0 Z " fill="#9C5382" transform="translate(198,56)"/>
<path d="M0 0 C2.475 0.495 2.475 0.495 5 1 C4.01 1.33 3.02 1.66 2 2 C2 4.64 2 7.28 2 10 C3.32 10.33 4.64 10.66 6 11 C4.02 11 2.04 11 0 11 C0 7.37 0 3.74 0 0 Z " fill="#D5A1BE" transform="translate(179,57)"/>
<path d="M0 0 C2.4375 2.0625 2.4375 2.0625 4 4 C3.67 4.66 3.34 5.32 3 6 C2.484375 5.525625 1.96875 5.05125 1.4375 4.5625 C-1.65318237 2.58129335 -4.39837058 2.4756869 -8 2 C-8.33 1.34 -8.66 0.68 -9 0 C-5.81452856 -1.59273572 -3.39809153 -0.76164121 0 0 Z " fill="#9E56A5" transform="translate(190,5)"/>
<path d="M0 0 C1.67542976 0.28604898 3.34385343 0.61781233 5 1 C4.67 2.65 4.34 4.3 4 6 C2.68 5.67 1.36 5.34 0 5 C-0.5625 3.0625 -0.5625 3.0625 -1 1 C-0.67 0.67 -0.34 0.34 0 0 Z " fill="#F4DDEA" transform="translate(93,80)"/>
<path d="M0 0 C1.98 0 3.96 0 6 0 C6 0.66 6 1.32 6 2 C4.68 2 3.36 2 2 2 C2 2.66 2 3.32 2 4 C2.99 4.33 3.98 4.66 5 5 C3.68 5 2.36 5 1 5 C1 5.99 1 6.98 1 8 C2.65 8 4.3 8 6 8 C6 8.33 6 8.66 6 9 C4.02 9 2.04 9 0 9 C0 6.03 0 3.06 0 0 Z " fill="#825068" transform="translate(55,78)"/>
<path d="M0 0 C0.721875 0.515625 1.44375 1.03125 2.1875 1.5625 C1.8575 3.2125 1.5275 4.8625 1.1875 6.5625 C0.98125 5.94375 0.775 5.325 0.5625 4.6875 C-1.36025888 1.71596355 -3.47844527 1.43225341 -6.8125 0.5625 C-6.8125 3.8625 -6.8125 7.1625 -6.8125 10.5625 C-7.1425 10.5625 -7.4725 10.5625 -7.8125 10.5625 C-7.8125 6.9325 -7.8125 3.3025 -7.8125 -0.4375 C-2.8125 -1.4375 -2.8125 -1.4375 0 0 Z " fill="#904873" transform="translate(11.8125,57.4375)"/>
<path d="M0 0 C0.47050781 0.40992187 0.94101563 0.81984375 1.42578125 1.2421875 C2.04839844 1.78101562 2.67101562 2.31984375 3.3125 2.875 C4.23482422 3.67550781 4.23482422 3.67550781 5.17578125 4.4921875 C7.13498212 6.1640447 7.13498212 6.1640447 10 8 C9.34 9.32 8.68 10.64 8 12 C6.84545838 10.75803878 5.70167438 9.50607155 4.5625 8.25 C3.92441406 7.55390625 3.28632813 6.8578125 2.62890625 6.140625 C1.00918675 4.01207275 0.41732744 2.60976595 0 0 Z " fill="#782D56" transform="translate(134,29)"/>
<path d="M0 0 C2.50298434 2.93828597 3.46930939 5.17902761 4 9 C3.21625 8.814375 2.4325 8.62875 1.625 8.4375 C-0.97089775 7.74037734 -0.97089775 7.74037734 -3 9 C-2.01 6.03 -1.02 3.06 0 0 Z " fill="#8B5371" transform="translate(190,78)"/>
<path d="M0 0 C1.65 0.33 3.3 0.66 5 1 C5 2.32 5 3.64 5 5 C3.125 5.625 3.125 5.625 1 6 C0.34 5.34 -0.32 4.68 -1 4 C-0.625 1.875 -0.625 1.875 0 0 Z " fill="#F8DDED" transform="translate(74,80)"/>
<path d="M0 0 C0.66 0 1.32 0 2 0 C2.33 0.66 2.66 1.32 3 2 C4.32 1.34 5.64 0.68 7 0 C5.46395304 3.14191424 3.94268841 6.08596738 2 9 C1.34 9 0.68 9 0 9 C0 6.03 0 3.06 0 0 Z " fill="#935F79" transform="translate(162,78)"/>
<path d="M0 0 C1.9955516 3.99110319 2.19546065 5.69986566 2 10 C3.65 10.33 5.3 10.66 7 11 C7 11.33 7 11.66 7 12 C4.69 12 2.38 12 0 12 C0 8.04 0 4.08 0 0 Z " fill="#F9E7F1" transform="translate(211,56)"/>
<path d="M0 0 C1.485 0.99 1.485 0.99 3 2 C2.67 5.96 2.34 9.92 2 14 C1.34 14 0.68 14 0 14 C0 9.38 0 4.76 0 0 Z " fill="#6D1448" transform="translate(52,56)"/>
<path d="M0 0 C1.65 0 3.3 0 5 0 C5 1.65 5 3.3 5 5 C3.0625 5.5625 3.0625 5.5625 1 6 C0 5 0 5 -0.0625 2.4375 C-0.041875 1.633125 -0.02125 0.82875 0 0 Z " fill="#F4DEF0" transform="translate(145,80)"/>
<path d="M0 0 C0 0.66 0 1.32 0 2 C-0.639375 2.12375 -1.27875 2.2475 -1.9375 2.375 C-2.618125 2.58125 -3.29875 2.7875 -4 3 C-4.33 3.66 -4.66 4.32 -5 5 C-7.97 5 -10.94 5 -14 5 C-13 3 -13 3 -10.56640625 2.1484375 C-9.57511719 1.89320312 -8.58382812 1.63796875 -7.5625 1.375 C-6.07943359 0.98441406 -6.07943359 0.98441406 -4.56640625 0.5859375 C-2 0 -2 0 0 0 Z " fill="#F5DCF8" transform="translate(195,46)"/>
<path d="M0 0 C0.33 0 0.66 0 1 0 C1.1799928 5.21979128 0.97094808 9.07262981 -1 14 C-1.66 12.68 -2.32 11.36 -3 10 C-2.67 9.67 -2.34 9.34 -2 9 C-2.020625 7.865625 -2.04125 6.73125 -2.0625 5.5625 C-2 2 -2 2 0 0 Z " fill="#F1C7F3" transform="translate(208,28)"/>
<path d="M0 0 C1.98 0 3.96 0 6 0 C6 0.66 6 1.32 6 2 C5.34 2 4.68 2 4 2 C4 4.31 4 6.62 4 9 C3.34 9 2.68 9 2 9 C2 6.69 2 4.38 2 2 C1.34 2 0.68 2 0 2 C0 1.34 0 0.68 0 0 Z " fill="#976F7F" transform="translate(179,78)"/>
<path d="M0 0 C3.44216672 2.6598561 3.99504674 5.90288286 5 10 C4.01 9.67 3.02 9.34 2 9 C2 8.01 2 7.02 2 6 C0.02 6 -1.96 6 -4 6 C-3.67 5.34 -3.34 4.68 -3 4 C-1.02 4.495 -1.02 4.495 1 5 C0.67 3.35 0.34 1.7 0 0 Z " fill="#701E4C" transform="translate(43,60)"/>
<path d="M0 0 C0.66 0 1.32 0 2 0 C1.67 1.65 1.34 3.3 1 5 C-0.65 5.33 -2.3 5.66 -4 6 C-4.33 4.68 -4.66 3.36 -5 2 C-4.34 1.67 -3.68 1.34 -3 1 C-3 1.66 -3 2.32 -3 3 C-2.01 3 -1.02 3 0 3 C0 2.01 0 1.02 0 0 Z " fill="#F5E0E9" transform="translate(171,79)"/>
<path d="M0 0 C0.99 0 1.98 0 3 0 C3 0.66 3 1.32 3 2 C2.01 2.495 2.01 2.495 1 3 C1.99 3.99 2.98 4.98 4 6 C3.67 6.99 3.34 7.98 3 9 C1.68 8.67 0.36 8.34 -1 8 C-0.01 8 0.98 8 2 8 C0.68 6.68 -0.64 5.36 -2 4 C-1.34 2.68 -0.68 1.36 0 0 Z " fill="#895D76" transform="translate(117,78)"/>
<path d="M0 0 C0.99 0 1.98 0 3 0 C3.66 1.32 4.32 2.64 5 4 C2.1875 5.5625 2.1875 5.5625 -1 7 C-1.99 6.67 -2.98 6.34 -4 6 C-2.68 5.67 -1.36 5.34 0 5 C0 3.35 0 1.7 0 0 Z " fill="#F6DEF1" transform="translate(72,65)"/>
<path d="M0 0 C0 2.97 0 5.94 0 9 C-0.99 9 -1.98 9 -3 9 C-3 6.36 -3 3.72 -3 1 C-1 0 -1 0 0 0 Z " fill="#F9FBFB" transform="translate(82,58)"/>
<path d="M0 0 C1.98 0 3.96 0 6 0 C6.33 0.99 6.66 1.98 7 3 C4.36 3.33 1.72 3.66 -1 4 C-0.67 2.68 -0.34 1.36 0 0 Z " fill="#E4CBDD" transform="translate(195,66)"/>
<path d="M0 0 C0.66 0 1.32 0 2 0 C2.33 2.31 2.66 4.62 3 7 C-0.47325181 8.1577506 -3.36067448 8.06866652 -7 8 C-6.67 7.34 -6.34 6.68 -6 6 C-4.35 6 -2.7 6 -1 6 C-0.29733387 3.02425724 -0.29733387 3.02425724 0 0 Z " fill="#F9E9F4" transform="translate(151,80)"/>
<path d="M0 0 C1.04187157 3.12561472 1.23843794 4.04680182 0 7 C-2.0625 8.25 -2.0625 8.25 -4 9 C-4.33 7.68 -4.66 6.36 -5 5 C-4.01 5 -3.02 5 -2 5 C-2 4.01 -2 3.02 -2 2 C-1.34 2 -0.68 2 0 2 C0 1.34 0 0.68 0 0 Z " fill="#FAF5F4" transform="translate(192,63)"/>
<path d="M0 0 C2.4375 0.75 2.4375 0.75 5 2 C5.8125 4.125 5.8125 4.125 6 6 C3.69 5.67 1.38 5.34 -1 5 C-1 4.34 -1 3.68 -1 3 C-0.34 2.67 0.32 2.34 1 2 C0.67 1.34 0.34 0.68 0 0 Z " fill="#C092AB" transform="translate(153,48)"/>
<path d="M0 0 C1.32 0 2.64 0 4 0 C4.66 1.65 5.32 3.3 6 5 C4.02 5 2.04 5 0 5 C0 3.35 0 1.7 0 0 Z " fill="#DEBFD5" transform="translate(20,65)"/>
<path d="M0 0 C0.66 0.33 1.32 0.66 2 1 C0.68 3.64 -0.64 6.28 -2 9 C-3.46132217 6.07735566 -4.34099246 4.07536854 -5 1 C-3.02 1.99 -3.02 1.99 -1 3 C-0.67 2.01 -0.34 1.02 0 0 Z " fill="#814C6A" transform="translate(41,78)"/>
<path d="M0 0 C0.99 0.33 1.98 0.66 3 1 C1.52307692 5.67692308 1.52307692 5.67692308 -1.125 7.3125 C-2.053125 7.6528125 -2.053125 7.6528125 -3 8 C-3.33 7.01 -3.66 6.02 -4 5 C-2.68 5 -1.36 5 0 5 C0 3.35 0 1.7 0 0 Z " fill="#F7F0F6" transform="translate(141,65)"/>
<path d="M0 0 C0.33 0 0.66 0 1 0 C1.66 3.3 2.32 6.6 3 10 C2.01 10.495 2.01 10.495 1 11 C-0.625 8.3125 -0.625 8.3125 -2 5 C-1.1875 2.125 -1.1875 2.125 0 0 Z " fill="#EDCAE3" transform="translate(27,59)"/>
<path d="M0 0 C0.33 0 0.66 0 1 0 C1.36554789 3.28993102 1.26218503 4.63099885 -0.6875 7.375 C-3 9 -3 9 -5.75 8.75 C-6.4925 8.5025 -7.235 8.255 -8 8 C-7.401875 7.731875 -6.80375 7.46375 -6.1875 7.1875 C-2.68911463 5.28837651 -1.26654546 3.79963639 0 0 Z " fill="#6F1E50" transform="translate(13,61)"/>
<path d="M0 0 C0.33 0 0.66 0 1 0 C1 3.3 1 6.6 1 10 C-0.65 8.35 -2.3 6.7 -4 5 C-3.01 4.67 -2.02 4.34 -1 4 C-0.26676204 1.98491642 -0.26676204 1.98491642 0 0 Z " fill="#DAA1C3" transform="translate(170,56)"/>
<path d="M0 0 C2.875 0.1875 2.875 0.1875 6 1 C7.375 3.5625 7.375 3.5625 8 6 C5 6 5 6 3.61328125 4.6875 C2.40885417 3.125 1.20442708 1.5625 0 0 Z " fill="#E6CEDD" transform="translate(52,55)"/>
<path d="M0 0 C3 1.8125 3 1.8125 6 4 C6 4.99 6 5.98 6 7 C3 7 3 7 1.3125 5.75 C0 4 0 4 0 0 Z " fill="#F9E6FA" transform="translate(196,15)"/>
<path d="M0 0 C2.475 0.99 2.475 0.99 5 2 C4.34 3.32 3.68 4.64 3 6 C1.68 5.67 0.36 5.34 -1 5 C-0.67 3.35 -0.34 1.7 0 0 Z " fill="#EDCCE0" transform="translate(104,80)"/>
<path d="M0 0 C-0.33 1.65 -0.66 3.3 -1 5 C-1.66 4.67 -2.32 4.34 -3 4 C-3 3.34 -3 2.68 -3 2 C-4.32 2 -5.64 2 -7 2 C-7 1.34 -7 0.68 -7 0 C-3.98968256 -0.93423645 -3.13349732 -1.04449911 0 0 Z " fill="#FCE7F8" transform="translate(64,80)"/>
<path d="M0 0 C1.37562854 1.28965176 2.70766393 2.62689293 4 4 C4 4.66 4 5.32 4 6 C3.34 6 2.68 6 2 6 C2 6.66 2 7.32 2 8 C1.34 8 0.68 8 0 8 C0 5.36 0 2.72 0 0 Z " fill="#F0D3ED" transform="translate(128,62)"/>
<path d="M0 0 C1.32 0 2.64 0 4 0 C3.67 1.65 3.34 3.3 3 5 C2.01 5 1.02 5 0 5 C0 3.35 0 1.7 0 0 Z " fill="#F4C9E4" transform="translate(21,58)"/>
<path d="M0 0 C0.33 1.32 0.66 2.64 1 4 C-1.31 4 -3.62 4 -6 4 C-6.33 3.34 -6.66 2.68 -7 2 C-4.69 1.34 -2.38 0.68 0 0 Z " fill="#F0DDEA" transform="translate(186,68)"/>
<path d="M0 0 C1.98 0 3.96 0 6 0 C6.33 0.99 6.66 1.98 7 3 C4.03 2.505 4.03 2.505 1 2 C1 2.66 1 3.32 1 4 C0.34 3.67 -0.32 3.34 -1 3 C-0.67 2.01 -0.34 1.02 0 0 Z " fill="#E5BCD6" transform="translate(105,66)"/>
<path d="M0 0 C2.475 0.495 2.475 0.495 5 1 C5 1.66 5 2.32 5 3 C5.66 3 6.32 3 7 3 C6.67 3.66 6.34 4.32 6 5 C4.02 4.34 2.04 3.68 0 3 C0 2.01 0 1.02 0 0 Z " fill="#EBD9E6" transform="translate(164,65)"/>
<path d="M0 0 C2 0 2 0 3.625 1.5 C4.07875 1.995 4.5325 2.49 5 3 C4.67 3.99 4.34 4.98 4 6 C2.68 5.34 1.36 4.68 0 4 C0 2.68 0 1.36 0 0 Z " fill="#E8D5E2" transform="translate(65,81)"/>
<path d="M0 0 C1.32 0.33 2.64 0.66 4 1 C3.67 2.32 3.34 3.64 3 5 C2.34 5 1.68 5 1 5 C0.67 5.99 0.34 6.98 0 8 C0 5.36 0 2.72 0 0 Z " fill="#FAE1F2" transform="translate(113,78)"/>
<path d="M0 0 C1.65 0 3.3 0 5 0 C5 0.66 5 1.32 5 2 C4.34 2 3.68 2 3 2 C3 4.31 3 6.62 3 9 C2.67 9 2.34 9 2 9 C2 6.69 2 4.38 2 2 C1.34 2 0.68 2 0 2 C0 1.34 0 0.68 0 0 Z " fill="#7B4061" transform="translate(123,78)"/>
<path d="M0 0 C1.98 1.65 3.96 3.3 6 5 C4.02 5.99 4.02 5.99 2 7 C0 4 0 4 0 0 Z " fill="#E2B9D7" transform="translate(54,60)"/>
</svg>
